# xmcd CD database file
#
# Track frame offsets:
#	150
#	13720
#	23109
#	35657
#	49747
#	59117
#	73605
#	92037
#	111741
#	128938
#
# Disc length: 1867 seconds
#
# Revision: 3
# Processed by: cddbd v1.5.2PL0 Copyright (c) Steve Scherf et al.
# Submitted via: CDex 1.81
#
DISCID=9407490a
DTITLE=Dizzy Gillespie - Diz 'N' Bird In Concert 
DYEAR=1947
DGENRE=Jazz
TTITLE0=A Night In Tunisia (Part 1)
TTITLE1=A Night In Tunisia (Part 2)
TTITLE2=Dizzy Atmosphere
TTITLE3=Groovin' High (Part 1)
TTITLE4=Groovin' High (Part 2)
TTITLE5=Confirmation
TTITLE6=Swing Low Sweet Cadillac
TTITLE7=Tin Tin Deo
TTITLE8=Ooh Shoobee Doobee
TTITLE9=School Days
EXTD=YEAR: 1947
EXTT0=
EXTT1=
EXTT2=
EXTT3=
EXTT4=
EXTT5=
EXTT6=
EXTT7=
EXTT8=
EXTT9=
PLAYORDER=
